<svg viewBox="0 0 54 54" fill="none" xmlns="http://www.w3.org/2000/svg">
	<g clip-path="url(#clip_avion)">
		<path class="mark mark-slash" d="M15.6334 52.2487H3.75583C1.18517 52.2487 -0.623676 49.723 0.201938 47.2912L15.0893 3.43237C15.7347 1.5297 17.5211 0.25 19.5326 0.25H31.4101C33.9808 0.25 35.7897 2.77563 34.964 5.20744L20.0767 49.0626C19.4312 50.9652 17.6449 52.2449 15.6334 52.2449V52.2487Z" fill="url(#linear1)"/>
		<path class="mark mark-dot" d="M36.0589 53.2702C45.8168 53.2702 53.7271 45.3598 53.7271 35.6019C53.7271 25.8439 45.8168 17.9336 36.0589 17.9336C26.3009 17.9336 18.3906 25.8439 18.3906 35.6019C18.3906 45.3598 26.3009 53.2702 36.0589 53.2702Z" fill="white"/>
		<path class="mark mark-dot" d="M36.0589 53.2702C45.8168 53.2702 53.7271 45.3598 53.7271 35.6019C53.7271 25.8439 45.8168 17.9336 36.0589 17.9336C26.3009 17.9336 18.3906 25.8439 18.3906 35.6019C18.3906 45.3598 26.3009 53.2702 36.0589 53.2702Z" fill="#FF0099" fill-opacity="0.61"/>
		<g style="mix-blend-mode:hard-light">
			<path class="mark mark-dot" d="M36.0589 53.2702C45.8168 53.2702 53.7271 45.3598 53.7271 35.6019C53.7271 25.8439 45.8168 17.9336 36.0589 17.9336C26.3009 17.9336 18.3906 25.8439 18.3906 35.6019C18.3906 45.3598 26.3009 53.2702 36.0589 53.2702Z" fill="#EBCCCC"/>
			<path class="mark mark-dot" d="M36.0589 53.2702C45.8168 53.2702 53.7271 45.3598 53.7271 35.6019C53.7271 25.8439 45.8168 17.9336 36.0589 17.9336C26.3009 17.9336 18.3906 25.8439 18.3906 35.6019C18.3906 45.3598 26.3009 53.2702 36.0589 53.2702Z" fill="url(#linear2)" fill-opacity="0.74"/>
		</g>
	</g>
	<defs>
	<linearGradient id="linear1" x1="17.5811" y1="1.63103" x2="17.5811" y2="50.8939" gradientUnits="userSpaceOnUse">
		<stop stop-color="#9F72F6"/>
		<stop offset="0.14" stop-color="#8664EF"/>
		<stop offset="0.4" stop-color="#6D55E7"/>
		<stop offset="0.89" stop-color="#5045DF"/>
	</linearGradient>
	<linearGradient id="linear2" x1="36.0589" y1="17.9336" x2="36.0589" y2="53.2702" gradientUnits="userSpaceOnUse">
		<stop stop-color="#FFB647"/>
		<stop offset="1" stop-color="#5244E9"/>
	</linearGradient>
	</defs>
</svg>
