<svg viewBox="0 0 55 54" fill="none" xmlns="http://www.w3.org/2000/svg">
	<path d="M54.9701 35.0326C54.5018 26.2802 47.6271 19.0395 38.883 18.1287C36.1116 17.8378 33.4554 18.1899 31.0295 19.0319V19.0241C31.0295 19.0241 31.0103 19.0319 30.9988 19.0356L35.7585 5.0555C36.603 2.57176 34.7529 0 32.1235 0H19.9747C17.9211 0 16.094 1.30502 15.43 3.24532L0.206549 47.9641C-0.637915 50.4478 1.21223 53.0197 3.84158 53.0197H15.9903C18.0439 53.0197 19.8749 51.7147 20.5352 49.7744L21.8671 45.8631C21.7443 45.6794 21.6252 45.4881 21.5101 45.3005C21.6252 45.4918 21.7443 45.6794 21.8671 45.8631C21.8671 45.8631 21.8786 45.8823 21.8863 45.8937L21.8939 45.8708C24.9685 50.5129 30.139 53.6779 36.0196 53.9764C46.7404 54.516 55.5421 45.7253 54.9739 35.0326H54.9701ZM30.3578 19.273C30.3041 19.292 30.2541 19.315 30.2004 19.3379C30.2541 19.3188 30.3041 19.2959 30.3578 19.273ZM29.0258 19.8584C28.7687 19.9847 28.5153 20.1187 28.2658 20.2526C28.5153 20.1148 28.7687 19.9809 29.0258 19.8584ZM20.4814 43.3335C20.5543 43.5018 20.6311 43.6663 20.7117 43.8271C20.6311 43.6626 20.5543 43.498 20.4814 43.3335ZM19.4489 40.3445C19.6945 41.3281 20.0208 42.281 20.4199 43.1918C20.0208 42.2772 19.6945 41.3281 19.4489 40.3445ZM21.1531 44.6805C21.2261 44.8106 21.3028 44.9447 21.3795 45.0709C21.3028 44.9408 21.2261 44.8106 21.1531 44.6805ZM19.445 40.3445C19.184 39.3036 19.019 38.2244 18.9498 37.1183C18.946 37.0457 18.9421 36.9691 18.9384 36.8926C18.9384 36.8772 18.9384 36.8581 18.9384 36.8428C18.9268 36.552 18.9153 36.261 18.9192 35.974C18.9192 35.9855 18.9192 35.997 18.9192 36.0085C18.9192 36.2878 18.9268 36.5672 18.9421 36.8428C18.9306 36.5672 18.9192 36.2878 18.9192 36.0085C18.9192 29.5638 22.32 23.9189 27.429 20.7425C27.6478 20.6047 27.8705 20.4746 28.0969 20.3483C28.1545 20.3138 28.2121 20.2833 28.2735 20.2489C28.523 20.111 28.7763 19.9771 29.0335 19.8547C29.306 19.7207 29.5824 19.5982 29.8626 19.4757C30.0968 19.3762 30.3347 19.2806 30.5728 19.1887C30.6572 19.1581 30.7416 19.1236 30.8299 19.0931C30.8875 19.0739 30.945 19.0548 31.0064 19.0356L21.8824 45.8363C20.7846 44.1716 19.9517 42.3193 19.4565 40.3407L19.445 40.3445Z" fill="#F7F8F8"/>
</svg>
