<svg viewBox="0 0 252 57" fill="none" xmlns="http://www.w3.org/2000/svg">
	<g>
		<path class="type type-a" d="M83.2189 46.6786L80.7731 54.5861C80.6531 54.9799 80.2892 55.2463 79.8766 55.2463H70.6262C69.3358 55.2463 68.4318 53.9746 68.8556 52.7555L84.483 7.75649C84.7456 7.0025 85.4546 6.49609 86.2536 6.49609H96.2354C97.0307 6.49609 97.7396 6.99875 98.0059 7.74898L113.821 52.748C114.249 53.9671 113.345 55.2463 112.05 55.2463H102.875C102.466 55.2463 102.106 54.9799 101.982 54.5936L99.4689 46.6823H83.2189V46.6786ZM86.2798 36.6142H96.2054L91.1751 20.773L86.2798 36.6142Z" fill="#f7f8f8"/>
		<path class="type type-v" d="M112.086 15.8123H121.423C121.828 15.8123 122.188 16.0712 122.312 16.4575L129.987 39.7448L137.797 16.45C137.924 16.0674 138.285 15.8086 138.686 15.8086H148.053C149.373 15.8086 150.277 17.1328 149.801 18.3631L135.726 54.6444C135.588 55.0045 135.239 55.2446 134.852 55.2446H124.724C124.334 55.2446 123.981 55.0008 123.846 54.6332L110.331 18.3406C109.873 17.114 110.781 15.8123 112.09 15.8123H112.086Z" fill="#f7f8f8"/>
		<path class="type type-i" d="M166.915 16.2671V54.3322C166.915 54.8383 166.504 55.2491 165.998 55.2491H154.987C154.481 55.2491 154.07 54.8383 154.07 54.3322V16.2671C154.07 15.9517 154.382 15.7317 154.679 15.8344C155.405 16.0801 156.997 16.3515 160.481 16.3515C163.965 16.3515 165.58 16.0801 166.306 15.8344C166.607 15.7317 166.915 15.9481 166.915 16.2671Z" fill="#f7f8f8"/>
		<path class="type type-i-dot" d="M160.489 13.5717C164.237 13.5717 167.275 10.5336 167.275 6.78586C167.275 3.03814 164.237 0 160.489 0C156.741 0 153.703 3.03814 153.703 6.78586C153.703 10.5336 156.741 13.5717 160.489 13.5717Z" fill="#f7f8f8"/>
		<path class="type type-o" d="M171.082 36.4789V35.256C171.082 30.7696 171.967 27.0297 173.666 24.0363C177.065 18.0531 183.254 14.9922 191.004 14.9922C195.014 14.9922 198.417 15.7387 201.406 17.3029C207.389 20.4314 210.855 26.4145 210.855 35.2522V36.4751C210.855 40.8265 210.038 44.4989 208.406 47.421C205.007 53.3366 199.024 56.2588 190.933 56.2588C178.081 56.2588 171.078 49.6642 171.078 36.4751L171.082 36.4789ZM198.552 36.3438V35.256C198.552 28.7965 195.899 25.4655 191.072 25.4655C186.244 25.4655 183.389 28.5939 183.389 35.256V36.3438C183.389 42.462 186.45 45.5905 191.004 45.5905C195.558 45.5905 198.552 42.5295 198.552 36.3438Z" fill="#f7f8f8"/>
		<path class="type type-n" d="M214.672 54.3082V17.6855C214.672 16.6502 215.512 15.8099 216.547 15.8099H224.421C224.879 15.8099 225.269 16.1363 225.344 16.5864L226.364 22.472C228.472 17.9181 232.482 14.9922 238.604 14.9922C247.442 14.9922 252 20.5664 252 30.1544V54.3044C252 54.8221 251.58 55.2422 251.062 55.2422H240.427C239.91 55.2422 239.49 54.8221 239.49 54.3044V33.688C239.49 28.7927 238.267 25.6643 233.709 25.6643C229.151 25.6643 227.25 29.2016 227.25 34.6408V54.3044C227.25 54.8221 226.829 55.2422 226.312 55.2422H215.61C215.092 55.2422 214.672 54.8221 214.672 54.3044V54.3082Z" fill="#f7f8f8"/>
		<path class="mark mark-dot" d="M36.0589 56.2702C45.8168 56.2702 53.7271 48.3598 53.7271 38.6019C53.7271 28.8439 45.8168 20.9336 36.0589 20.9336C26.3009 20.9336 18.3906 28.8439 18.3906 38.6019C18.3906 48.3598 26.3009 56.2702 36.0589 56.2702Z" fill="white"/>
		<path class="mark mark-dot" d="M36.0589 56.2702C45.8168 56.2702 53.7271 48.3598 53.7271 38.6019C53.7271 28.8439 45.8168 20.9336 36.0589 20.9336C26.3009 20.9336 18.3906 28.8439 18.3906 38.6019C18.3906 48.3598 26.3009 56.2702 36.0589 56.2702Z" fill="#FF0099" fill-opacity="0.61"/>
		<path class="mark mark-slash" d="M15.6334 55.2487H3.75583C1.18517 55.2487 -0.623676 52.723 0.201938 50.2912L15.0893 6.43237C15.7347 4.5297 17.5211 3.25 19.5326 3.25H31.4101C33.9808 3.25 35.7897 5.77563 34.964 8.20744L20.0767 52.0626C19.4312 53.9652 17.6449 55.2449 15.6334 55.2449V55.2487Z" fill="url(#linear1)"/>
		<g style="mix-blend-mode:hard-light">
			<path class="mark mark-dot" d="M36.0589 56.2702C45.8168 56.2702 53.7271 48.3598 53.7271 38.6019C53.7271 28.8439 45.8168 20.9336 36.0589 20.9336C26.3009 20.9336 18.3906 28.8439 18.3906 38.6019C18.3906 48.3598 26.3009 56.2702 36.0589 56.2702Z" fill="#EBCCCC"/>
			<path class="mark mark-dot" d="M36.0589 56.2702C45.8168 56.2702 53.7271 48.3598 53.7271 38.6019C53.7271 28.8439 45.8168 20.9336 36.0589 20.9336C26.3009 20.9336 18.3906 28.8439 18.3906 38.6019C18.3906 48.3598 26.3009 56.2702 36.0589 56.2702Z" fill="url(#linear2)" fill-opacity="0.74"/>
		</g>
	</g>
	<defs>
		<linearGradient id="linear1" x1="17.5811" y1="4.63103" x2="17.5811" y2="53.8939" gradientUnits="userSpaceOnUse">
			<stop stop-color="#9F72F6"/>
			<stop offset="0.14" stop-color="#8664EF"/>
			<stop offset="0.4" stop-color="#6D55E7"/>
			<stop offset="0.89" stop-color="#5045DF"/>
		</linearGradient>
		<linearGradient id="linear2" x1="36.0589" y1="20.9336" x2="36.0589" y2="56.2702" gradientUnits="userSpaceOnUse">
			<stop stop-color="#FFB647"/>
			<stop offset="1" stop-color="#5244E9"/>
		</linearGradient>
	</defs>
</svg>
